<svg width="60" height="60" viewBox="0 0 60 60" fill="none" xmlns="http://www.w3.org/2000/svg">
<g clip-path="url(#clip0_3_170)">
<path d="M12.2548 18.7238L2.66345 30.4707C1.61772 31.5751 1.80215 33.0835 1.86675 33.9713L2.4191 45.5523C2.50617 46.6604 2.67656 47.1169 3.79438 47.3438L8.99683 48.317C9.77388 48.4557 10.4639 48.6919 11.0836 47.8754C12.0432 46.6116 13.9128 44.1432 14.3463 43.5301C14.7872 42.9019 15.3555 41.2041 16.6811 37.3004C17.4984 34.9098 20.2696 28.2066 20.2696 28.2066C20.5907 27.137 20.0178 25.7382 18.3307 25.0688C17.7026 24.8042 16.9985 24.7841 16.3564 25.0123C15.7142 25.2405 15.1803 25.7007 14.8593 26.3026L10.124 34.1438" stroke="#1653A4" stroke-width="2" stroke-linecap="round" stroke-linejoin="round"/>
<path d="M48.6364 18.7238L58.2287 30.4707C59.2744 31.5751 59.09 33.0835 59.0254 33.9713L58.474 45.5523C58.3869 46.6604 58.2156 47.1169 57.0987 47.3438L51.8962 48.317C51.1183 48.4557 50.4292 48.6919 49.8095 47.8754C48.8499 46.6116 46.9803 44.1432 46.5468 43.5301C46.1059 42.9019 45.5376 41.2041 44.2119 37.3004C43.3946 34.9098 40.6235 28.2066 40.6235 28.2066C40.3024 27.137 40.8753 25.7382 42.5623 25.0688C43.1903 24.8043 43.8943 24.7841 44.5363 25.0124C45.1783 25.2406 45.712 25.7007 46.0328 26.3026L50.7691 34.1438" stroke="#1653A4" stroke-width="2" stroke-linecap="round" stroke-linejoin="round"/>
<path d="M14.952 22.4438V20.9841" stroke="#1653A4" stroke-width="2" stroke-miterlimit="10" stroke-linecap="round"/>
<path d="M43.5875 24.8757V11.5416" stroke="#1653A4" stroke-width="2" stroke-miterlimit="10"/>
<path d="M17.3749 24.3779V11.5416" stroke="#1653A4" stroke-width="2" stroke-miterlimit="10"/>
<path d="M18.7708 31.8863H42.0624" stroke="#1653A4" stroke-width="2" stroke-miterlimit="10"/>
<path d="M48.2019 29.8969C48.2209 29.8175 48.2353 29.7371 48.245 29.656C48.5174 26.7891 48.6504 24.0544 48.6504 21.2898C48.6682 18.8733 48.5522 16.4577 48.303 14.0541C48.0222 12.4304 47.1291 11.5416 46.1498 11.5416H15.3994C14.7599 11.5308 14.1377 11.7499 13.6456 12.1591C13.1535 12.5682 12.8241 13.1404 12.7172 13.7719C12.4485 16.6369 12.3109 19.1673 12.3109 21.7079C12.3109 24.2485 12.4485 26.7882 12.7219 29.6823C12.7275 29.7254 12.7341 29.7666 12.7425 29.8088" stroke="#1653A4" stroke-width="2" stroke-miterlimit="10"/>
</g>
<defs>
<clipPath id="clip0_3_170">
<rect width="60" height="60" fill="white"/>
</clipPath>
</defs>
</svg>
