<svg width="154" height="179" viewBox="0 0 154 179" fill="none" xmlns="http://www.w3.org/2000/svg">
<g filter="url(#filter0_d_3_145)">
<path d="M31.5573 51.608C31.5573 51.608 32.008 50.5602 31.8743 50.0069C31.8016 48.7354 30.7241 48.6472 29.7804 49.1122C29.7804 49.1122 29.7804 49.1122 29.6161 48.9179C26.231 50.4484 24.6228 54.4746 22.5522 57.5591C20.0614 61.3322 17.9297 65.1347 15.798 68.9373C14.3119 71.5273 16.1615 75.2945 19.4856 74.4822C26.1031 73.2166 32.5257 72.1159 39.277 71.4036C40.1902 71.2976 40.7747 70.8032 41.1949 70.1145L41.7489 69.9791C42.3335 69.4846 42.3335 69.4846 42.918 68.9902C42.918 68.9902 42.918 68.9902 43.3077 68.6606C43.6974 68.3309 43.7279 67.9719 43.5942 67.4185C43.6247 67.0595 43.6552 66.7004 43.5215 66.1471C43.3571 65.9528 43.2234 65.3995 42.8947 65.011C42.7304 64.8168 42.5661 64.6225 42.4018 64.4283C42.0732 64.0398 41.714 64.0104 41.3549 63.9809C41.1906 63.7867 40.6366 63.9221 40.2774 63.8927C40.2774 63.8927 39.7539 63.669 39.5591 63.8338C39.1999 63.8044 38.8408 63.7749 38.4511 64.1046C37.4041 63.6572 36.3267 63.5689 35.2492 63.4806C40.7471 60.4963 46.5735 57.9004 52.6981 56.052C63.2853 52.7616 74.7666 51.7138 86.0648 52.8203C107.748 55.1395 130.177 67.8244 143.467 85.9071C144.289 86.8783 145.653 85.7246 145.026 84.5885C131.621 63.6039 110.751 49.6004 85.8961 46.2983C67.835 43.9144 47.2642 47.6523 31.726 58.13C32.104 55.8108 32.2872 53.6564 31.5573 51.608Z" fill="#1653A4"/>
<path d="M44.971 103.322L44.0171 113.229L41.9758 113.033L38.6346 106.008L37.9952 112.649L35.9538 112.453L36.9077 102.546L38.949 102.742L42.2964 109.774L42.9364 103.126L44.971 103.322ZM49.8043 112.111L50.12 108.831C50.1428 108.595 50.1236 108.389 50.0627 108.214C50.0022 108.034 49.8948 107.889 49.7407 107.778C49.5911 107.667 49.3893 107.6 49.1352 107.576C48.9175 107.555 48.7255 107.575 48.5593 107.637C48.3936 107.694 48.2608 107.789 48.1611 107.921C48.0618 108.049 48.0032 108.206 47.9853 108.392L46.0256 108.203C46.0557 107.89 46.1569 107.6 46.3292 107.333C46.5014 107.066 46.7362 106.839 47.0334 106.652C47.3311 106.461 47.6763 106.323 48.0692 106.237C48.4666 106.151 48.9034 106.132 49.3797 106.177C49.9513 106.232 50.4502 106.377 50.8764 106.61C51.3026 106.843 51.6244 107.163 51.8417 107.568C52.0636 107.974 52.1471 108.463 52.092 109.035L51.7887 112.185C51.7498 112.589 51.7429 112.922 51.7679 113.186C51.7934 113.444 51.8445 113.674 51.9215 113.873L51.9103 113.989L49.9302 113.798C49.8542 113.59 49.8056 113.333 49.7845 113.029C49.7684 112.721 49.775 112.415 49.8043 112.111ZM50.3347 109.312L50.2415 110.422L49.146 110.317C48.8875 110.292 48.6601 110.3 48.4639 110.34C48.2677 110.381 48.1031 110.45 47.9701 110.547C47.8376 110.639 47.7351 110.753 47.6626 110.888C47.5946 111.023 47.5525 111.175 47.5364 111.343C47.5202 111.511 47.5441 111.666 47.6081 111.81C47.6726 111.949 47.7737 112.064 47.9114 112.155C48.0496 112.242 48.2162 112.294 48.4113 112.313C48.7061 112.341 48.9681 112.307 49.1972 112.21C49.4263 112.113 49.6081 111.984 49.7427 111.823C49.8818 111.663 49.961 111.505 49.9804 111.352L50.4176 112.232C50.3271 112.411 50.2087 112.594 50.0625 112.781C49.9208 112.969 49.7462 113.142 49.5386 113.301C49.3315 113.455 49.0887 113.576 48.8101 113.663C48.532 113.746 48.2092 113.77 47.8418 113.735C47.3745 113.69 46.9593 113.556 46.5962 113.333C46.238 113.107 45.9637 112.817 45.7733 112.464C45.5879 112.108 45.5157 111.716 45.5568 111.29C45.5939 110.904 45.6994 110.569 45.8734 110.283C46.0474 109.998 46.2849 109.767 46.5858 109.589C46.8916 109.408 47.2628 109.286 47.6993 109.223C48.1362 109.155 48.6359 109.148 49.1984 109.202L50.3347 109.312ZM57.3048 112.455C57.3184 112.314 57.2898 112.184 57.219 112.062C57.1483 111.941 57.0064 111.822 56.7933 111.705C56.5851 111.585 56.2786 111.464 55.8736 111.342C55.5095 111.225 55.1723 111.089 54.862 110.936C54.5567 110.778 54.2946 110.599 54.0758 110.4C53.8615 110.201 53.7001 109.975 53.5917 109.721C53.4837 109.464 53.4448 109.179 53.4749 108.865C53.5046 108.557 53.5984 108.273 53.7561 108.014C53.9184 107.754 54.1344 107.533 54.404 107.348C54.6785 107.159 55.0029 107.023 55.3772 106.94C55.7564 106.853 56.1751 106.832 56.6333 106.876C57.2729 106.937 57.812 107.092 58.2505 107.341C58.6935 107.589 59.0203 107.905 59.2308 108.287C59.4462 108.664 59.5321 109.08 59.4884 109.534L57.5287 109.345C57.547 109.155 57.5226 108.98 57.4554 108.823C57.3931 108.661 57.2822 108.529 57.1226 108.427C56.9681 108.32 56.7592 108.255 56.4961 108.229C56.2784 108.208 56.0864 108.229 55.9202 108.291C55.7544 108.348 55.6224 108.436 55.5239 108.555C55.4305 108.669 55.3766 108.801 55.3622 108.951C55.3512 109.064 55.3641 109.169 55.4007 109.264C55.4423 109.355 55.5141 109.442 55.6159 109.525C55.7178 109.608 55.8519 109.69 56.0182 109.77C56.1894 109.846 56.4019 109.921 56.6557 109.996C57.1759 110.156 57.6362 110.344 58.0365 110.561C58.4373 110.774 58.7457 111.042 58.9619 111.365C59.1784 111.683 59.2636 112.083 59.2173 112.564C59.1858 112.89 59.0844 113.183 58.9131 113.441C58.7417 113.699 58.5101 113.917 58.2183 114.095C57.9269 114.269 57.5852 114.394 57.1932 114.47C56.8062 114.543 56.3768 114.557 55.9051 114.511C55.2201 114.445 54.6512 114.267 54.1985 113.976C53.7503 113.686 53.4218 113.34 53.2131 112.94C53.0094 112.536 52.9267 112.134 52.9652 111.735L54.8228 111.914C54.8061 112.182 54.8534 112.405 54.9647 112.58C55.0805 112.756 55.2347 112.89 55.4274 112.982C55.6245 113.074 55.841 113.131 56.0769 113.154C56.3309 113.179 56.5452 113.165 56.7195 113.113C56.8944 113.057 57.0306 112.974 57.1281 112.864C57.2306 112.75 57.2895 112.614 57.3048 112.455ZM63.2532 104.526L62.2463 114.984L60.2866 114.796L61.2935 104.337L63.2532 104.526ZM67.5958 108.069L64.0466 111.408L62.1648 112.978L61.5866 111.494L63.1139 109.897L65.2415 107.842L67.5958 108.069ZM64.8524 115.235L63.0026 111.623L64.4706 110.57L67.1115 115.453L64.8524 115.235ZM70.9702 115.962C70.3986 115.906 69.8947 115.766 69.4586 115.541C69.0228 115.312 68.6619 115.018 68.3758 114.661C68.0943 114.304 67.8903 113.902 67.764 113.455C67.638 113.004 67.5987 112.533 67.6458 112.043L67.672 111.771C67.7258 111.213 67.8543 110.71 68.0576 110.263C68.2609 109.815 68.5264 109.436 68.854 109.124C69.1861 108.812 69.5742 108.586 70.018 108.446C70.4624 108.301 70.9522 108.254 71.4875 108.306C72.0091 108.356 72.4635 108.487 72.8507 108.698C73.2378 108.909 73.5522 109.187 73.7938 109.531C74.0399 109.875 74.2119 110.276 74.3097 110.734C74.408 111.188 74.4311 111.684 74.3792 112.224L74.3006 113.041L68.4487 112.477L68.5745 111.171L72.5007 111.549L72.5151 111.399C72.5413 111.127 72.5148 110.879 72.4355 110.657C72.3612 110.43 72.2326 110.243 72.0498 110.098C71.867 109.952 71.6236 109.864 71.3196 109.835C71.0611 109.81 70.8333 109.845 70.6364 109.941C70.4395 110.036 70.2723 110.181 70.1347 110.373C70.0016 110.567 69.8923 110.799 69.8067 111.07C69.726 111.337 69.67 111.633 69.6385 111.96L69.6123 112.232C69.5839 112.527 69.5986 112.803 69.6562 113.061C69.7184 113.318 69.8178 113.545 69.9546 113.742C70.0959 113.938 70.2729 114.097 70.4855 114.219C70.7028 114.34 70.9543 114.415 71.24 114.442C71.5939 114.476 71.9293 114.44 72.2463 114.333C72.5684 114.222 72.854 114.037 73.1034 113.777L73.9564 114.903C73.7808 115.11 73.5493 115.303 73.262 115.482C72.9793 115.66 72.6456 115.798 72.2609 115.893C71.8767 115.985 71.4465 116.007 70.9702 115.962ZM77.5967 110.618L77.0392 116.408L75.0796 116.22L75.7884 108.857L77.6256 109.034L77.5967 110.618ZM77.1328 112.441L76.602 112.39C76.6544 111.846 76.7719 111.363 76.9545 110.941C77.1375 110.514 77.3708 110.159 77.6545 109.875C77.9387 109.586 78.2633 109.377 78.6283 109.248C78.9983 109.114 79.4011 109.068 79.8365 109.11C80.1813 109.143 80.4918 109.223 80.768 109.35C81.0441 109.478 81.2738 109.66 81.457 109.898C81.6447 110.135 81.7757 110.439 81.8501 110.808C81.929 111.177 81.9436 111.62 81.8938 112.137L81.4417 116.832L79.4684 116.642L79.9211 111.94C79.9526 111.614 79.9317 111.355 79.8584 111.165C79.7852 110.975 79.6636 110.835 79.4936 110.746C79.3287 110.652 79.1192 110.593 78.8651 110.568C78.602 110.543 78.3679 110.573 78.1628 110.659C77.9623 110.745 77.7895 110.874 77.6446 111.048C77.5046 111.218 77.3911 111.422 77.304 111.661C77.2169 111.9 77.1598 112.16 77.1328 112.441ZM87.4565 115.633L87.9956 110.033L89.9553 110.221L89.2465 117.584L87.4025 117.406L87.4565 115.633ZM87.8196 114.143L88.3993 114.185C88.3522 114.675 88.2516 115.126 88.0975 115.536C87.9439 115.943 87.7389 116.289 87.4824 116.576C87.2263 116.858 86.9176 117.069 86.5562 117.208C86.1953 117.343 85.7812 117.387 85.314 117.342C84.9556 117.308 84.6293 117.226 84.335 117.097C84.0456 116.964 83.8025 116.778 83.6058 116.539C83.4139 116.297 83.2734 115.997 83.1841 115.64C83.0998 115.28 83.0812 114.854 83.1284 114.364L83.5863 109.608L85.546 109.797L85.0868 114.567C85.0658 114.784 85.0731 114.971 85.1086 115.125C85.1486 115.28 85.2116 115.41 85.2977 115.514C85.3838 115.619 85.4884 115.697 85.6115 115.75C85.7391 115.804 85.8823 115.838 86.0411 115.854C86.4448 115.892 86.7702 115.841 87.0173 115.7C87.2689 115.56 87.4559 115.353 87.5782 115.081C87.7055 114.805 87.786 114.492 87.8196 114.143ZM91.5612 110.376L93.5277 110.565L92.7762 118.37C92.7238 118.914 92.5797 119.365 92.3439 119.722C92.108 120.08 91.7924 120.338 91.3971 120.497C91.0018 120.655 90.5366 120.709 90.0013 120.658C89.8334 120.641 89.671 120.617 89.514 120.583C89.3524 120.549 89.1874 120.504 89.019 120.446L89.1705 118.943C89.2777 118.972 89.383 118.996 89.4864 119.015C89.5849 119.038 89.6863 119.055 89.7907 119.065C89.9948 119.084 90.1682 119.067 90.3108 119.012C90.4535 118.957 90.5658 118.86 90.6478 118.721C90.7339 118.588 90.7879 118.407 90.8097 118.181L91.5612 110.376ZM91.5894 108.442C91.6169 108.156 91.7394 107.93 91.9569 107.763C92.179 107.597 92.4556 107.53 92.7867 107.561C93.1224 107.594 93.3811 107.713 93.5628 107.918C93.7445 108.123 93.8216 108.368 93.794 108.654C93.7665 108.94 93.644 109.166 93.4265 109.333C93.209 109.5 92.9324 109.567 92.5967 109.535C92.2656 109.503 92.0069 109.384 91.8207 109.178C91.639 108.973 91.5619 108.728 91.5894 108.442ZM103.494 117.472L105.97 119.853L104.577 120.845L102.141 118.468L103.494 117.472ZM106.6 114.021L106.555 114.491C106.483 115.244 106.316 115.91 106.054 116.489C105.796 117.069 105.459 117.551 105.042 117.937C104.625 118.318 104.15 118.595 103.616 118.768C103.082 118.941 102.502 118.997 101.876 118.937C101.255 118.877 100.696 118.711 100.2 118.439C99.7045 118.167 99.2885 117.804 98.9522 117.351C98.6163 116.893 98.3728 116.354 98.2218 115.735C98.0753 115.117 98.0383 114.431 98.1108 113.678L98.156 113.208C98.2289 112.451 98.3961 111.785 98.6574 111.21C98.9237 110.631 99.2632 110.149 99.6758 109.763C100.088 109.377 100.564 109.098 101.102 108.925C101.641 108.753 102.221 108.696 102.843 108.756C103.469 108.816 104.027 108.982 104.518 109.254C105.014 109.526 105.43 109.891 105.766 110.349C106.102 110.807 106.343 111.346 106.489 111.964C106.636 112.578 106.673 113.264 106.6 114.021ZM104.493 114.292L104.54 113.809C104.591 113.283 104.585 112.816 104.524 112.407C104.467 111.998 104.359 111.649 104.199 111.359C104.044 111.069 103.839 110.844 103.584 110.682C103.33 110.515 103.031 110.416 102.686 110.382C102.341 110.349 102.028 110.39 101.747 110.505C101.466 110.615 101.222 110.798 101.014 111.053C100.807 111.307 100.636 111.63 100.502 112.02C100.369 112.41 100.277 112.868 100.226 113.394L100.179 113.877C100.129 114.399 100.132 114.866 100.189 115.279C100.245 115.687 100.351 116.039 100.506 116.333C100.666 116.623 100.873 116.851 101.127 117.018C101.386 117.184 101.687 117.284 102.032 117.318C102.377 117.351 102.687 117.31 102.964 117.194C103.245 117.08 103.49 116.895 103.697 116.64C103.91 116.381 104.083 116.057 104.217 115.667C104.351 115.272 104.443 114.814 104.493 114.292ZM108.532 109.441L112.226 109.797C112.984 109.87 113.624 110.046 114.147 110.325C114.674 110.605 115.063 110.981 115.315 111.454C115.567 111.927 115.662 112.488 115.6 113.137C115.549 113.667 115.414 114.115 115.196 114.478C114.983 114.838 114.7 115.129 114.349 115.351C114.003 115.57 113.605 115.733 113.155 115.841L112.476 116.119L109.265 115.809L109.404 114.216L111.793 114.446C112.151 114.48 112.454 114.445 112.702 114.341C112.95 114.237 113.144 114.077 113.284 113.861C113.428 113.646 113.515 113.389 113.544 113.09C113.574 112.772 113.542 112.492 113.446 112.249C113.351 112.007 113.188 111.813 112.96 111.667C112.731 111.521 112.435 111.431 112.072 111.396L110.419 111.237L109.619 119.545L107.578 119.349L108.532 109.441ZM113.117 119.882L111.283 115.248L113.441 115.442L115.31 119.997L115.301 120.092L113.117 119.882ZM122.82 110.261L121.813 120.719L119.853 120.53L120.86 110.072L122.82 110.261ZM127.162 113.803L123.613 117.143L121.731 118.713L121.153 117.229L122.68 115.631L124.808 113.577L127.162 113.803ZM124.419 120.97L122.569 117.358L124.037 116.305L126.678 121.187L124.419 120.97ZM127.331 117.611L127.345 117.468C127.397 116.928 127.522 116.439 127.72 116C127.918 115.556 128.181 115.181 128.508 114.874C128.835 114.567 129.223 114.341 129.672 114.196C130.122 114.047 130.625 113.999 131.183 114.053C131.741 114.107 132.229 114.25 132.646 114.482C133.063 114.71 133.403 115.006 133.666 115.37C133.933 115.735 134.122 116.154 134.232 116.627C134.342 117.095 134.372 117.599 134.32 118.139L134.306 118.282C134.254 118.817 134.129 119.307 133.931 119.75C133.733 120.189 133.468 120.564 133.136 120.875C132.809 121.183 132.421 121.408 131.972 121.553C131.523 121.697 131.02 121.743 130.462 121.689C129.904 121.635 129.416 121.495 128.998 121.267C128.585 121.039 128.245 120.743 127.978 120.379C127.716 120.01 127.53 119.592 127.419 119.123C127.309 118.65 127.28 118.146 127.331 117.611ZM129.305 117.656L129.291 117.799C129.261 118.108 129.261 118.398 129.289 118.671C129.318 118.944 129.382 119.188 129.48 119.404C129.583 119.615 129.727 119.787 129.911 119.919C130.095 120.051 130.328 120.131 130.609 120.158C130.881 120.184 131.12 120.15 131.326 120.055C131.532 119.961 131.704 119.819 131.841 119.631C131.979 119.438 132.088 119.211 132.168 118.948C132.252 118.686 132.31 118.401 132.339 118.093L132.353 117.95C132.382 117.65 132.38 117.366 132.346 117.098C132.317 116.825 132.252 116.58 132.149 116.364C132.051 116.144 131.91 115.966 131.726 115.829C131.543 115.693 131.312 115.611 131.036 115.584C130.759 115.558 130.517 115.594 130.311 115.693C130.109 115.793 129.937 115.941 129.794 116.138C129.657 116.33 129.548 116.558 129.468 116.82C129.388 117.078 129.334 117.357 129.305 117.656ZM130.327 113.105L131.862 111.138L133.992 111.343L131.919 113.259L130.327 113.105ZM139.666 120.817L140.517 111.971L142.491 112.161L141.484 122.613L139.708 122.442L139.666 120.817ZM135.203 118.382L135.217 118.239C135.271 117.677 135.383 117.173 135.554 116.727C135.726 116.276 135.95 115.897 136.227 115.59C136.504 115.282 136.83 115.055 137.206 114.908C137.582 114.761 137.999 114.709 138.457 114.754C138.888 114.795 139.256 114.922 139.56 115.134C139.87 115.347 140.121 115.633 140.316 115.99C140.515 116.344 140.664 116.754 140.761 117.221C140.858 117.684 140.913 118.186 140.925 118.727L140.894 119.04C140.782 119.547 140.634 120.013 140.451 120.439C140.268 120.866 140.045 121.234 139.781 121.543C139.523 121.847 139.222 122.075 138.878 122.225C138.534 122.375 138.144 122.429 137.708 122.387C137.25 122.343 136.851 122.21 136.51 121.99C136.175 121.77 135.9 121.48 135.688 121.121C135.48 120.762 135.334 120.35 135.25 119.884C135.167 119.418 135.151 118.917 135.203 118.382ZM137.176 118.428L137.162 118.571C137.133 118.875 137.129 119.16 137.149 119.428C137.173 119.696 137.23 119.937 137.319 120.152C137.413 120.362 137.544 120.533 137.71 120.663C137.881 120.79 138.095 120.865 138.354 120.89C138.69 120.922 138.973 120.874 139.206 120.745C139.438 120.612 139.624 120.417 139.763 120.16C139.907 119.904 140.005 119.602 140.057 119.255L140.142 118.363C140.156 118.076 140.14 117.816 140.094 117.583C140.053 117.345 139.976 117.139 139.865 116.963C139.758 116.788 139.616 116.646 139.439 116.537C139.266 116.429 139.055 116.363 138.806 116.339C138.552 116.315 138.328 116.353 138.135 116.453C137.943 116.549 137.781 116.691 137.648 116.88C137.52 117.069 137.416 117.297 137.335 117.564C137.259 117.827 137.206 118.115 137.176 118.428ZM45.3949 135.797L45.7107 132.517C45.7334 132.281 45.7142 132.076 45.6533 131.901C45.5928 131.721 45.4854 131.575 45.3313 131.464C45.1817 131.354 44.9799 131.286 44.7258 131.262C44.5081 131.241 44.3161 131.261 44.1499 131.323C43.9842 131.381 43.8514 131.475 43.7517 131.608C43.6524 131.735 43.5938 131.892 43.5759 132.078L41.6162 131.89C41.6464 131.577 41.7475 131.287 41.9198 131.019C42.092 130.752 42.3268 130.525 42.624 130.339C42.9217 130.147 43.2669 130.009 43.6598 129.923C44.0572 129.838 44.494 129.818 44.9703 129.864C45.5419 129.919 46.0408 130.063 46.467 130.296C46.8932 130.53 47.215 130.849 47.4324 131.255C47.6542 131.661 47.7377 132.149 47.6826 132.721L47.3793 135.871C47.3405 136.275 47.3335 136.609 47.3585 136.872C47.384 137.131 47.4352 137.36 47.5121 137.56L47.5009 137.676L45.5208 137.485C45.4448 137.276 45.3962 137.02 45.3752 136.715C45.359 136.407 45.3656 136.101 45.3949 135.797ZM45.9253 132.998L45.8322 134.109L44.7366 134.003C44.4781 133.978 44.2507 133.986 44.0545 134.027C43.8583 134.067 43.6937 134.136 43.5607 134.233C43.4282 134.326 43.3257 134.44 43.2532 134.575C43.1852 134.71 43.1431 134.862 43.127 135.029C43.1108 135.197 43.1347 135.353 43.1988 135.496C43.2632 135.635 43.3643 135.75 43.502 135.842C43.6402 135.928 43.8068 135.981 44.0019 136C44.2968 136.028 44.5587 135.994 44.7878 135.897C45.0169 135.8 45.1988 135.671 45.3333 135.51C45.4724 135.349 45.5516 135.192 45.571 135.038L46.0082 135.918C45.9177 136.097 45.7994 136.28 45.6531 136.468C45.5114 136.655 45.3368 136.829 45.1292 136.987C44.9221 137.141 44.6793 137.262 44.4007 137.35C44.1226 137.433 43.7998 137.457 43.4324 137.421C42.9651 137.376 42.5499 137.242 42.1868 137.02C41.8286 136.793 41.5543 136.503 41.3639 136.151C41.1785 135.794 41.1063 135.403 41.1474 134.976C41.1845 134.591 41.2901 134.255 41.464 133.97C41.638 133.684 41.8755 133.453 42.1764 133.276C42.4823 133.095 42.8534 132.973 43.2899 132.909C43.7268 132.841 44.2265 132.835 44.789 132.889L45.9253 132.998ZM58.1953 137.16L58.0479 138.691L52.4546 138.153L52.602 136.622L58.1953 137.16ZM58.5391 132.448L53.2439 138.229L51.9306 138.102L52.0427 136.939L57.3142 131.19L58.6478 131.318L58.5391 132.448ZM57.9538 131.251L57.8057 132.789L52.6003 132.288L52.7483 130.75L57.9538 131.251ZM62.1045 131.651L61.3957 139.013L59.4292 138.824L60.138 131.462L62.1045 131.651ZM60.2851 130.576L61.8205 128.609L63.9503 128.814L61.8773 130.729L60.2851 130.576ZM67.2665 137.525C67.28 137.385 67.2514 137.254 67.1807 137.132C67.11 137.011 66.968 136.892 66.7549 136.775C66.5468 136.655 66.2402 136.534 65.8353 136.412C65.4712 136.295 65.134 136.159 64.8237 136.006C64.5184 135.848 64.2563 135.67 64.0374 135.47C63.8231 135.271 63.6618 135.045 63.5534 134.791C63.4454 134.534 63.4065 134.249 63.4366 133.936C63.4663 133.627 63.56 133.343 63.7178 133.084C63.8801 132.824 64.096 132.603 64.3656 132.418C64.6402 132.229 64.9646 132.093 65.3388 132.01C65.7181 131.923 66.1368 131.902 66.5949 131.946C67.2346 132.007 67.7736 132.162 68.2121 132.411C68.6552 132.659 68.982 132.975 69.1924 133.357C69.4078 133.734 69.4937 134.15 69.45 134.604L67.4904 134.415C67.5087 134.225 67.4843 134.051 67.417 133.893C67.3547 133.731 67.2438 133.599 67.0843 133.497C66.9297 133.391 66.7209 133.325 66.4578 133.299C66.24 133.278 66.0481 133.299 65.8819 133.361C65.7161 133.418 65.584 133.506 65.4856 133.625C65.3922 133.739 65.3382 133.871 65.3238 134.021C65.3129 134.135 65.3257 134.239 65.3624 134.334C65.404 134.425 65.4757 134.512 65.5776 134.595C65.6795 134.678 65.8136 134.76 65.9798 134.84C66.1511 134.916 66.3636 134.991 66.6173 135.066C67.1376 135.226 67.5979 135.414 67.9982 135.631C68.3989 135.844 68.7074 136.112 68.9235 136.435C69.1401 136.753 69.2252 137.153 69.1789 137.634C69.1475 137.96 69.0461 138.253 68.8747 138.511C68.7034 138.769 68.4718 138.987 68.1799 139.165C67.8885 139.339 67.5468 139.464 67.1549 139.54C66.7679 139.613 66.3385 139.627 65.8667 139.581C65.1817 139.515 64.6129 139.337 64.1601 139.046C63.712 138.756 63.3835 138.41 63.1748 138.01C62.9711 137.606 62.8884 137.204 62.9268 136.805L64.7845 136.984C64.7678 137.253 64.8151 137.475 64.9264 137.65C65.0422 137.826 65.1964 137.96 65.389 138.052C65.5862 138.144 65.8027 138.201 66.0386 138.224C66.2926 138.249 66.5068 138.235 66.6812 138.183C66.856 138.127 66.9922 138.044 67.0898 137.934C67.1923 137.82 67.2512 137.684 67.2665 137.525ZM73.2149 129.596L72.208 140.054L70.2483 139.866L71.2552 129.407L73.2149 129.596ZM77.5575 133.139L74.0082 136.478L72.1264 138.048L71.5482 136.564L73.0755 134.967L75.2031 132.912L77.5575 133.139ZM74.8141 140.305L72.9642 136.693L74.4323 135.64L77.0732 140.523L74.8141 140.305ZM80.9318 141.032C80.3602 140.977 79.8564 140.836 79.4202 140.611C78.9845 140.382 78.6236 140.088 78.3375 139.731C78.0559 139.374 77.852 138.972 77.7256 138.525C77.5997 138.074 77.5603 137.603 77.6075 137.113L77.6337 136.841C77.6874 136.283 77.8159 135.78 78.0193 135.333C78.2226 134.885 78.488 134.506 78.8157 134.194C79.1478 133.882 79.5358 133.656 79.9797 133.516C80.424 133.371 80.9138 133.324 81.4491 133.376C81.9708 133.426 82.4252 133.557 82.8123 133.768C83.1995 133.979 83.5138 134.257 83.7554 134.601C84.0016 134.945 84.1736 135.346 84.2714 135.804C84.3697 136.258 84.3928 136.754 84.3408 137.294L84.2622 138.111L78.4104 137.547L78.5362 136.241L82.4623 136.619L82.4767 136.469C82.503 136.197 82.4764 135.949 82.3971 135.727C82.3228 135.5 82.1943 135.313 82.0114 135.168C81.8286 135.022 81.5852 134.934 81.2813 134.905C81.0227 134.88 80.795 134.915 80.5981 135.011C80.4012 135.106 80.2339 135.251 80.0963 135.443C79.9633 135.637 79.8539 135.869 79.7683 136.14C79.6877 136.407 79.6316 136.703 79.6002 137.03L79.574 137.302C79.5456 137.597 79.5602 137.873 79.6178 138.131C79.68 138.388 79.7795 138.615 79.9163 138.812C80.0576 139.008 80.2345 139.167 80.4472 139.289C80.6644 139.41 80.9159 139.485 81.2017 139.512C81.5555 139.546 81.891 139.51 82.208 139.403C82.53 139.292 82.8157 139.107 83.0651 138.847L83.9181 139.973C83.7425 140.18 83.511 140.373 83.2237 140.552C82.9409 140.731 82.6072 140.868 82.2226 140.964C81.8384 141.055 81.4081 141.077 80.9318 141.032ZM85.8997 133.942L87.8662 134.131L87.1148 141.936C87.0624 142.48 86.9183 142.931 86.6824 143.288C86.4466 143.646 86.131 143.904 85.7357 144.063C85.3404 144.221 84.8751 144.275 84.3399 144.223C84.172 144.207 84.0096 144.182 83.8526 144.149C83.691 144.115 83.526 144.07 83.3575 144.012L83.5091 142.509C83.6163 142.538 83.7215 142.561 83.825 142.581C83.9235 142.604 84.0249 142.62 84.1292 142.63C84.3334 142.65 84.5068 142.632 84.6494 142.578C84.792 142.523 84.9044 142.426 84.9864 142.287C85.0725 142.154 85.1265 141.973 85.1483 141.747L85.8997 133.942ZM85.928 132.008C85.9555 131.722 86.078 131.496 86.2955 131.329C86.5176 131.163 86.7942 131.095 87.1253 131.127C87.461 131.16 87.7197 131.278 87.9014 131.484C88.0831 131.689 88.1601 131.934 88.1326 132.22C88.1051 132.506 87.9826 132.732 87.7651 132.899C87.5476 133.066 87.271 133.133 86.9353 133.101C86.6042 133.069 86.3455 132.95 86.1593 132.744C85.9776 132.539 85.9005 132.294 85.928 132.008ZM96.3196 140.7L96.6353 137.42C96.6581 137.184 96.6389 136.979 96.578 136.804C96.5174 136.624 96.4101 136.478 96.256 136.367C96.1064 136.257 95.9046 136.189 95.6505 136.165C95.4328 136.144 95.2408 136.164 95.0746 136.226C94.9089 136.283 94.7761 136.378 94.6764 136.511C94.5771 136.638 94.5185 136.795 94.5006 136.981L92.5409 136.793C92.571 136.48 92.6722 136.189 92.8445 135.922C93.0167 135.655 93.2515 135.428 93.5487 135.241C93.8464 135.05 94.1916 134.912 94.5845 134.826C94.9819 134.741 95.4187 134.721 95.895 134.767C96.4666 134.822 96.9655 134.966 97.3917 135.199C97.8179 135.433 98.1397 135.752 98.357 136.158C98.5789 136.563 98.6624 137.052 98.6073 137.624L98.304 140.774C98.2651 141.178 98.2582 141.512 98.2832 141.775C98.3087 142.034 98.3598 142.263 98.4368 142.463L98.4256 142.578L96.4455 142.388C96.3695 142.179 96.3209 141.923 96.2998 141.618C96.2837 141.31 96.2903 141.004 96.3196 140.7ZM96.85 137.901L96.7568 139.011L95.6613 138.906C95.4028 138.881 95.1754 138.889 94.9792 138.93C94.783 138.97 94.6184 139.039 94.4854 139.136C94.3529 139.229 94.2504 139.342 94.1779 139.477C94.1099 139.613 94.0678 139.764 94.0517 139.932C94.0355 140.1 94.0594 140.256 94.1234 140.399C94.1879 140.538 94.289 140.653 94.4267 140.744C94.5649 140.831 94.7315 140.884 94.9266 140.902C95.2214 140.931 95.4834 140.896 95.7125 140.8C95.9416 140.703 96.1234 140.574 96.258 140.412C96.3971 140.252 96.4763 140.095 96.4957 139.941L96.9329 140.821C96.8424 141 96.724 141.183 96.5778 141.37C96.4361 141.558 96.2615 141.731 96.0539 141.89C95.8468 142.044 95.604 142.165 95.3254 142.252C95.0473 142.336 94.7245 142.359 94.3571 142.324C93.8898 142.279 93.4746 142.145 93.1115 141.923C92.7533 141.696 92.479 141.406 92.2886 141.054C92.1032 140.697 92.031 140.305 92.0721 139.879C92.1092 139.493 92.2147 139.158 92.3887 138.872C92.5627 138.587 92.8002 138.356 93.1011 138.179C93.4069 137.998 93.7781 137.875 94.2146 137.812C94.6515 137.744 95.1512 137.737 95.7137 137.792L96.85 137.901ZM102.176 136.937L101.331 145.715L99.3711 145.526L100.352 135.333L102.169 135.508L102.176 136.937ZM106.627 139.57L106.613 139.713C106.561 140.248 106.45 140.739 106.279 141.185C106.112 141.631 105.892 142.013 105.619 142.33C105.346 142.643 105.022 142.877 104.645 143.033C104.273 143.185 103.856 143.239 103.393 143.194C102.944 143.151 102.563 143.023 102.249 142.809C101.936 142.596 101.681 142.315 101.486 141.967C101.295 141.614 101.153 141.213 101.059 140.765C100.965 140.316 100.905 139.839 100.881 139.333L100.917 138.959C101.041 138.43 101.192 137.951 101.371 137.519C101.551 137.083 101.767 136.712 102.021 136.407C102.28 136.098 102.581 135.868 102.925 135.718C103.274 135.569 103.67 135.515 104.115 135.558C104.582 135.603 104.984 135.731 105.321 135.942C105.662 136.154 105.937 136.436 106.146 136.791C106.359 137.145 106.505 137.558 106.583 138.028C106.666 138.498 106.68 139.012 106.627 139.57ZM104.646 139.524L104.66 139.381C104.69 139.068 104.691 138.777 104.662 138.509C104.638 138.236 104.578 137.995 104.484 137.784C104.395 137.574 104.264 137.406 104.093 137.28C103.927 137.149 103.717 137.072 103.463 137.047C103.196 137.022 102.962 137.043 102.764 137.111C102.569 137.179 102.405 137.289 102.272 137.441C102.138 137.593 102.031 137.779 101.95 138.001C101.869 138.222 101.808 138.475 101.767 138.759L101.676 139.705C101.666 140.043 101.701 140.35 101.779 140.628C101.858 140.901 101.999 141.125 102.202 141.301C102.405 141.476 102.683 141.581 103.037 141.615C103.296 141.639 103.519 141.604 103.707 141.507C103.895 141.406 104.054 141.259 104.182 141.066C104.315 140.872 104.417 140.644 104.488 140.381C104.564 140.118 104.617 139.832 104.646 139.524ZM110.557 133.198L109.551 143.65L107.584 143.46L108.591 133.009L110.557 133.198ZM113.948 136.642L113.239 144.005L111.272 143.815L111.981 136.453L113.948 136.642ZM112.044 134.522C112.071 134.236 112.194 134.01 112.411 133.843C112.629 133.677 112.905 133.609 113.241 133.642C113.572 133.674 113.828 133.792 114.01 133.997C114.196 134.203 114.276 134.449 114.248 134.734C114.221 135.02 114.096 135.246 113.874 135.413C113.656 135.579 113.382 135.647 113.051 135.615C112.715 135.583 112.457 135.464 112.275 135.259C112.093 135.053 112.016 134.808 112.044 134.522ZM117.825 133.891L116.818 144.349L114.858 144.161L115.865 133.702L117.825 133.891ZM122.168 137.434L118.618 140.773L116.737 142.343L116.158 140.859L117.686 139.261L119.813 137.207L122.168 137.434ZM119.424 144.6L117.574 140.988L119.042 139.935L121.683 144.818L119.424 144.6ZM126.436 143.6L126.752 140.32C126.775 140.084 126.756 139.878 126.695 139.703C126.634 139.523 126.527 139.378 126.373 139.267C126.223 139.156 126.021 139.089 125.767 139.064C125.549 139.043 125.357 139.064 125.191 139.126C125.025 139.183 124.893 139.278 124.793 139.41C124.694 139.538 124.635 139.695 124.617 139.881L122.658 139.692C122.688 139.379 122.789 139.089 122.961 138.822C123.133 138.554 123.368 138.327 123.665 138.141C123.963 137.95 124.308 137.811 124.701 137.726C125.098 137.64 125.535 137.62 126.012 137.666C126.583 137.721 127.082 137.865 127.508 138.099C127.935 138.332 128.256 138.652 128.474 139.057C128.696 139.463 128.779 139.952 128.724 140.523L128.421 143.674C128.382 144.078 128.375 144.411 128.4 144.674C128.425 144.933 128.476 145.163 128.553 145.362L128.542 145.478L126.562 145.287C126.486 145.079 126.438 144.822 126.416 144.518C126.4 144.21 126.407 143.903 126.436 143.6ZM126.967 140.801L126.873 141.911L125.778 141.806C125.519 141.781 125.292 141.788 125.096 141.829C124.9 141.87 124.735 141.939 124.602 142.036C124.469 142.128 124.367 142.242 124.294 142.377C124.226 142.512 124.184 142.664 124.168 142.832C124.152 143 124.176 143.155 124.24 143.299C124.304 143.438 124.406 143.553 124.543 143.644C124.682 143.73 124.848 143.783 125.043 143.802C125.338 143.83 125.6 143.796 125.829 143.699C126.058 143.602 126.24 143.473 126.375 143.312C126.514 143.151 126.593 142.994 126.612 142.84L127.049 143.72C126.959 143.899 126.841 144.083 126.694 144.27C126.553 144.458 126.378 144.631 126.171 144.789C125.963 144.944 125.721 145.064 125.442 145.152C125.164 145.235 124.841 145.259 124.474 145.224C124.006 145.179 123.591 145.045 123.228 144.822C122.87 144.595 122.596 144.306 122.405 143.953C122.22 143.596 122.148 143.205 122.189 142.779C122.226 142.393 122.331 142.057 122.505 141.772C122.679 141.487 122.917 141.255 123.218 141.078C123.524 140.897 123.895 140.775 124.331 140.712C124.768 140.644 125.268 140.637 125.83 140.691L126.967 140.801ZM132.936 144.493C133.177 144.516 133.394 144.491 133.589 144.419C133.784 144.341 133.942 144.224 134.062 144.066C134.188 143.904 134.264 143.708 134.291 143.477L136.135 143.654C136.08 144.171 135.898 144.618 135.587 144.996C135.276 145.369 134.881 145.649 134.4 145.836C133.92 146.019 133.397 146.083 132.83 146.028C132.258 145.973 131.768 145.83 131.36 145.598C130.957 145.367 130.63 145.07 130.381 144.707C130.133 144.34 129.96 143.925 129.863 143.462C129.766 142.995 129.742 142.503 129.792 141.986L129.811 141.789C129.861 141.267 129.978 140.788 130.162 140.353C130.346 139.913 130.595 139.538 130.909 139.23C131.223 138.917 131.6 138.685 132.04 138.535C132.48 138.385 132.984 138.338 133.551 138.392C134.154 138.45 134.672 138.617 135.103 138.892C135.539 139.167 135.865 139.533 136.082 139.989C136.305 140.441 136.39 140.959 136.338 141.545L134.494 141.367C134.513 141.122 134.482 140.895 134.402 140.685C134.325 140.477 134.2 140.304 134.026 140.168C133.856 140.029 133.637 139.946 133.37 139.92C133.084 139.892 132.844 139.931 132.651 140.036C132.458 140.137 132.302 140.286 132.182 140.485C132.063 140.68 131.97 140.907 131.904 141.166C131.842 141.421 131.798 141.691 131.77 141.977L131.751 142.175C131.724 142.46 131.716 142.737 131.727 143.003C131.738 143.27 131.783 143.51 131.863 143.724C131.948 143.938 132.075 144.113 132.245 144.248C132.416 144.384 132.646 144.465 132.936 144.493ZM139.805 139.132L139.096 146.494L137.129 146.305L137.838 138.942L139.805 139.132ZM137.901 137.012C137.928 136.726 138.051 136.5 138.268 136.333C138.486 136.166 138.762 136.099 139.098 136.131C139.429 136.163 139.685 136.282 139.867 136.487C140.053 136.692 140.133 136.938 140.105 137.224C140.078 137.51 139.953 137.736 139.731 137.902C139.513 138.069 139.239 138.136 138.908 138.104C138.572 138.072 138.314 137.953 138.132 137.748C137.95 137.543 137.873 137.297 137.901 137.012ZM59.1991 154.624L55.7138 162.577L53.5432 162.368L58.1783 152.815L59.5596 152.948L59.1991 154.624ZM60.6471 163.052L58.7364 154.579L58.6818 152.864L60.0767 152.998L62.8245 163.262L60.6471 163.052ZM60.8797 159.352L60.7257 160.951L55.4931 160.448L55.647 158.849L60.8797 159.352ZM66.6955 153.086L65.6892 163.538L63.7227 163.348L64.729 152.897L66.6955 153.086ZM73.3147 162.727L73.1673 164.258L67.574 163.719L67.7214 162.188L73.3147 162.727ZM73.6585 158.014L68.3634 163.795L67.0501 163.669L67.1621 162.505L72.4336 156.756L73.7673 156.885L73.6585 158.014ZM73.0732 156.818L72.9252 158.356L67.7197 157.855L67.8678 156.317L73.0732 156.818ZM78.5326 163.099L78.8484 159.819C78.8711 159.583 78.8519 159.377 78.791 159.202C78.7305 159.022 78.6231 158.877 78.469 158.766C78.3194 158.655 78.1176 158.588 77.8635 158.563C77.6458 158.542 77.4538 158.563 77.2876 158.625C77.1219 158.682 76.9891 158.777 76.8894 158.909C76.7901 159.037 76.7315 159.194 76.7136 159.38L74.7539 159.191C74.7841 158.878 74.8852 158.588 75.0575 158.321C75.2297 158.053 75.4645 157.826 75.7617 157.64C76.0594 157.449 76.4046 157.31 76.7975 157.225C77.1949 157.139 77.6317 157.119 78.108 157.165C78.6796 157.22 79.1785 157.364 79.6047 157.598C80.0309 157.831 80.3527 158.151 80.5701 158.556C80.7919 158.962 80.8754 159.451 80.8203 160.022L80.517 163.173C80.4782 163.577 80.4712 163.91 80.4962 164.173C80.5217 164.432 80.5729 164.662 80.6498 164.861L80.6386 164.977L78.6585 164.786C78.5825 164.578 78.5339 164.321 78.5129 164.017C78.4967 163.709 78.5033 163.402 78.5326 163.099ZM79.063 160.3L78.9699 161.41L77.8743 161.305C77.6158 161.28 77.3884 161.287 77.1922 161.328C76.996 161.369 76.8314 161.438 76.6984 161.535C76.5659 161.627 76.4634 161.741 76.3909 161.876C76.3229 162.011 76.2808 162.163 76.2647 162.331C76.2485 162.499 76.2724 162.654 76.3365 162.798C76.4009 162.937 76.502 163.052 76.6397 163.143C76.7779 163.229 76.9445 163.282 77.1396 163.301C77.4345 163.329 77.6964 163.295 77.9255 163.198C78.1546 163.101 78.3365 162.972 78.471 162.811C78.6101 162.65 78.6893 162.493 78.7087 162.339L79.1459 163.219C79.0554 163.398 78.9371 163.582 78.7908 163.769C78.6491 163.957 78.4745 164.13 78.2669 164.288C78.0598 164.443 77.817 164.563 77.5384 164.651C77.2603 164.734 76.9375 164.758 76.5701 164.723C76.1028 164.678 75.6876 164.544 75.3245 164.321C74.9663 164.094 74.692 163.805 74.5016 163.452C74.3162 163.095 74.244 162.704 74.2851 162.278C74.3222 161.892 74.4278 161.556 74.6017 161.271C74.7757 160.986 75.0132 160.754 75.3141 160.577C75.62 160.396 75.9911 160.274 76.4276 160.211C76.8645 160.143 77.3642 160.136 77.9267 160.19L79.063 160.3ZM82.043 164.158C82.0709 163.867 82.1941 163.634 82.4125 163.458C82.6354 163.283 82.9147 163.211 83.2504 163.244C83.586 163.276 83.8443 163.399 84.0251 163.614C84.2105 163.828 84.2892 164.081 84.2612 164.371C84.2333 164.661 84.1078 164.894 83.8849 165.07C83.6665 165.246 83.3895 165.317 83.0538 165.285C82.7181 165.253 82.4576 165.129 82.2723 164.914C82.0914 164.7 82.015 164.448 82.043 164.158ZM89.0744 164.381C89.3148 164.404 89.5324 164.38 89.7271 164.307C89.9223 164.229 90.0801 164.112 90.2006 163.954C90.3261 163.792 90.4022 163.596 90.429 163.365L92.273 163.542C92.2187 164.059 92.036 164.506 91.725 164.884C91.4144 165.257 91.0188 165.537 90.5384 165.724C90.0584 165.907 89.5349 165.971 88.9678 165.916C88.3962 165.861 87.9064 165.718 87.4983 165.486C87.0948 165.255 86.7686 164.958 86.5196 164.595C86.2712 164.228 86.0982 163.813 86.0008 163.351C85.9039 162.883 85.8803 162.391 85.9301 161.874L85.9491 161.677C85.9993 161.155 86.1163 160.676 86.3002 160.241C86.4845 159.801 86.7334 159.426 87.047 159.118C87.361 158.805 87.7381 158.573 88.1784 158.423C88.6186 158.273 89.1222 158.226 89.6892 158.28C90.2926 158.338 90.8099 158.505 91.2413 158.78C91.6772 159.055 92.0037 159.421 92.2207 159.877C92.4428 160.329 92.5279 160.847 92.4761 161.433L90.6321 161.255C90.6511 161.01 90.6204 160.783 90.5398 160.574C90.4637 160.365 90.3384 160.192 90.1638 160.057C89.9941 159.917 89.7755 159.834 89.5078 159.808C89.222 159.78 88.9825 159.819 88.7893 159.924C88.5965 160.025 88.4401 160.174 88.3202 160.374C88.2008 160.568 88.108 160.795 88.0418 161.054C87.9806 161.309 87.9363 161.58 87.9088 161.865L87.8898 162.063C87.8622 162.349 87.854 162.625 87.8649 162.891C87.8759 163.158 87.9214 163.398 88.0016 163.612C88.0863 163.826 88.2137 164.001 88.3838 164.136C88.5539 164.272 88.7841 164.353 89.0744 164.381ZM99.1717 165.216L99.0243 166.747L93.431 166.209L93.5784 164.678L99.1717 165.216ZM99.5155 160.504L94.2204 166.285L92.9071 166.158L93.0191 164.995L98.2906 159.246L99.6243 159.374L99.5155 160.504ZM98.9302 159.307L98.7822 160.845L93.5767 160.344L93.7248 158.806L98.9302 159.307ZM106.504 160.036L105.795 167.399L103.828 167.21L104.537 159.847L106.504 160.036ZM104.599 157.916C104.627 157.631 104.749 157.404 104.967 157.238C105.184 157.071 105.461 157.004 105.797 157.036C106.128 157.068 106.384 157.186 106.566 157.392C106.752 157.597 106.832 157.843 106.804 158.129C106.777 158.415 106.652 158.641 106.43 158.807C106.212 158.974 105.938 159.041 105.607 159.009C105.271 158.977 105.012 158.858 104.831 158.653C104.649 158.448 104.572 158.202 104.599 157.916ZM110.333 157.287L109.326 167.739L107.367 167.55L108.373 157.099L110.333 157.287ZM109.427 163.772L108.889 163.72C108.943 163.208 109.056 162.743 109.229 162.325C109.403 161.902 109.627 161.544 109.903 161.25C110.179 160.951 110.496 160.73 110.853 160.586C111.215 160.442 111.604 160.39 112.022 160.43C112.384 160.465 112.708 160.549 112.993 160.682C113.283 160.81 113.523 160.998 113.715 161.246C113.911 161.489 114.051 161.798 114.134 162.172C114.217 162.546 114.233 162.992 114.184 163.509L113.736 168.163L111.762 167.973L112.212 163.306C112.243 162.979 112.22 162.718 112.143 162.523C112.07 162.324 111.95 162.177 111.78 162.083C111.616 161.985 111.406 161.923 111.152 161.899C110.871 161.872 110.625 161.901 110.416 161.986C110.211 162.071 110.04 162.201 109.904 162.376C109.769 162.546 109.662 162.751 109.584 162.991C109.506 163.231 109.454 163.491 109.427 163.772ZM117.702 162.701L117.145 168.492L115.185 168.303L115.894 160.941L117.731 161.117L117.702 162.701ZM117.238 164.524L116.707 164.473C116.76 163.929 116.877 163.446 117.06 163.024C117.243 162.597 117.476 162.242 117.76 161.958C118.044 161.669 118.369 161.46 118.734 161.331C119.104 161.197 119.506 161.151 119.942 161.193C120.287 161.226 120.597 161.306 120.873 161.434C121.15 161.561 121.379 161.743 121.562 161.981C121.75 162.219 121.881 162.522 121.955 162.891C122.034 163.26 122.049 163.703 121.999 164.22L121.547 168.915L119.574 168.725L120.027 164.024C120.058 163.697 120.037 163.439 119.964 163.248C119.891 163.058 119.769 162.918 119.599 162.829C119.434 162.735 119.225 162.676 118.971 162.651C118.707 162.626 118.473 162.656 118.268 162.742C118.068 162.828 117.895 162.958 117.75 163.131C117.61 163.301 117.497 163.505 117.409 163.744C117.322 163.983 117.265 164.243 117.238 164.524ZM126.413 169.521C125.841 169.466 125.337 169.326 124.901 169.101C124.466 168.871 124.105 168.578 123.819 168.221C123.537 167.864 123.333 167.462 123.207 167.015C123.081 166.563 123.041 166.093 123.089 165.603L123.115 165.33C123.168 164.772 123.297 164.27 123.5 163.822C123.704 163.375 123.969 162.995 124.297 162.683C124.629 162.372 125.017 162.146 125.461 162.006C125.905 161.861 126.395 161.814 126.93 161.866C127.452 161.916 127.906 162.047 128.293 162.258C128.68 162.469 128.995 162.747 129.236 163.09C129.483 163.435 129.655 163.836 129.752 164.294C129.851 164.747 129.874 165.244 129.822 165.784L129.743 166.6L123.891 166.037L124.017 164.731L127.943 165.109L127.958 164.959C127.984 164.687 127.957 164.439 127.878 164.216C127.804 163.989 127.675 163.803 127.492 163.657C127.31 163.512 127.066 163.424 126.762 163.395C126.504 163.37 126.276 163.405 126.079 163.501C125.882 163.596 125.715 163.74 125.577 163.933C125.444 164.126 125.335 164.358 125.249 164.629C125.169 164.896 125.113 165.193 125.081 165.52L125.055 165.792C125.027 166.087 125.041 166.363 125.099 166.62C125.161 166.878 125.261 167.105 125.397 167.301C125.539 167.498 125.716 167.657 125.928 167.778C126.145 167.9 126.397 167.975 126.683 168.002C127.037 168.036 127.372 168 127.689 167.893C128.011 167.782 128.297 167.597 128.546 167.337L129.399 168.463C129.223 168.67 128.992 168.863 128.705 169.041C128.422 169.22 128.088 169.358 127.704 169.453C127.319 169.544 126.889 169.567 126.413 169.521ZM135.066 168.596L135.917 159.75L137.891 159.94L136.884 170.392L135.108 170.221L135.066 168.596ZM130.603 166.161L130.617 166.018C130.671 165.456 130.783 164.952 130.954 164.506C131.126 164.055 131.35 163.676 131.627 163.369C131.904 163.061 132.23 162.834 132.606 162.687C132.982 162.54 133.399 162.488 133.857 162.533C134.288 162.574 134.656 162.701 134.96 162.914C135.27 163.126 135.521 163.412 135.716 163.769C135.915 164.123 136.064 164.533 136.161 165C136.258 165.463 136.313 165.965 136.325 166.506L136.294 166.819C136.182 167.326 136.034 167.792 135.851 168.219C135.668 168.645 135.445 169.013 135.181 169.322C134.923 169.626 134.622 169.854 134.278 170.004C133.934 170.154 133.544 170.208 133.108 170.166C132.65 170.122 132.251 169.989 131.91 169.769C131.575 169.549 131.3 169.259 131.088 168.9C130.88 168.541 130.734 168.129 130.65 167.663C130.567 167.197 130.551 166.697 130.603 166.161ZM132.576 166.207L132.562 166.35C132.533 166.654 132.529 166.94 132.549 167.207C132.573 167.475 132.63 167.716 132.719 167.931C132.813 168.141 132.944 168.312 133.11 168.442C133.281 168.569 133.495 168.644 133.754 168.669C134.09 168.701 134.373 168.653 134.606 168.524C134.838 168.391 135.024 168.196 135.163 167.939C135.307 167.683 135.405 167.381 135.457 167.034L135.542 166.142C135.556 165.855 135.54 165.595 135.494 165.362C135.453 165.124 135.376 164.918 135.265 164.742C135.158 164.567 135.016 164.425 134.839 164.317C134.666 164.208 134.455 164.142 134.206 164.118C133.952 164.094 133.728 164.132 133.535 164.232C133.343 164.328 133.181 164.471 133.048 164.659C132.92 164.848 132.816 165.076 132.735 165.343C132.659 165.606 132.606 165.894 132.576 166.207Z" fill="#212121"/>
</g>
<defs>
<filter id="filter0_d_3_145" x="11.2787" y="45.6066" width="137.907" height="132.924" filterUnits="userSpaceOnUse" color-interpolation-filters="sRGB">
<feFlood flood-opacity="0" result="BackgroundImageFix"/>
<feColorMatrix in="SourceAlpha" type="matrix" values="0 0 0 0 0 0 0 0 0 0 0 0 0 0 0 0 0 0 127 0" result="hardAlpha"/>
<feOffset dy="4"/>
<feGaussianBlur stdDeviation="2"/>
<feComposite in2="hardAlpha" operator="out"/>
<feColorMatrix type="matrix" values="0 0 0 0 0 0 0 0 0 0 0 0 0 0 0 0 0 0 0.25 0"/>
<feBlend mode="normal" in2="BackgroundImageFix" result="effect1_dropShadow_3_145"/>
<feBlend mode="normal" in="SourceGraphic" in2="effect1_dropShadow_3_145" result="shape"/>
</filter>
</defs>
</svg>
